<svg width="151" height="120" viewBox="0 0 151 120" fill="none" xmlns="http://www.w3.org/2000/svg">
<g clip-path="url(#clip0_3559_126)">
<path d="M31.598 0C23.0056 0 16.6474 7.52059 16.9321 15.6765C17.2056 23.5118 16.8503 33.6606 14.2956 41.9365C11.7333 50.2365 7.39914 55.4941 0.320312 56.1694V63.7906C7.39914 64.4659 11.7333 69.7235 14.2956 78.0241C16.8503 86.3 17.2056 96.4476 16.9321 104.284C16.6474 112.438 23.0056 119.96 31.5991 119.96H119.642C128.235 119.96 134.591 112.439 134.307 104.284C134.034 96.4482 134.389 86.3 136.943 78.0241C139.507 69.7241 143.83 64.4653 150.909 63.7906V56.1694C143.83 55.4941 139.507 50.2365 136.944 41.9365C134.389 33.6618 134.034 23.5124 134.307 15.6765C134.591 7.52176 128.235 0 119.642 0H31.5968H31.598ZM102.414 73.8429C102.414 85.0735 94.038 91.8841 80.1368 91.8841H56.4721C55.7953 91.8838 55.1463 91.6148 54.6678 91.1362C54.1893 90.6576 53.9205 90.0085 53.9203 89.3318V30.6282C53.9203 29.9513 54.1892 29.302 54.6678 28.8232C55.1465 28.3445 55.7957 28.0755 56.4727 28.0753H80.0015C91.5927 28.0753 99.1997 34.3547 99.1997 43.9947C99.1997 50.7612 94.0821 56.8188 87.5627 57.8794V58.2329C96.4385 59.2065 102.414 65.3529 102.414 73.8429ZM77.5556 36.1665H64.0633V55.2253H75.428C84.2127 55.2253 89.0574 51.6877 89.0574 45.3641C89.0574 39.4388 84.8909 36.1665 77.5556 36.1665ZM64.0638 62.7876V83.7906H78.0533C87.1991 83.7906 92.045 80.1206 92.045 73.2229C92.045 66.3241 87.0644 62.7865 77.465 62.7865H64.0638V62.7876Z" fill="#7E13F8"/>
</g>
<defs>
<clipPath id="clip0_3559_126">
<rect width="150.59" height="120" fill="white" transform="translate(0.319336)"/>
</clipPath>
</defs>
</svg>
