<svg width="87" height="120" viewBox="0 0 87 120" fill="none" xmlns="http://www.w3.org/2000/svg">
<g clip-path="url(#clip0_3559_113)">
<path d="M43.4874 119.697L8.85623 110.083L1.13867 23.5233H85.9398L78.2142 110.07L43.4874 119.697Z" fill="#264DE4"/>
<path d="M71.6001 104.559L78.2018 30.6007H43.5391V112.338L71.6001 104.559Z" fill="#2965F1"/>
<path d="M18.831 62.7045L19.7823 73.3207H43.5393V62.7045H18.831ZM16.9189 41.2172L17.8839 51.8333H43.5393V41.2172H16.9189ZM43.5393 90.2759L43.4928 90.2882L31.6696 87.0957L30.9137 78.6289H20.2567L21.7439 95.2979L43.4905 101.335L43.5393 101.321V90.2759Z" fill="#EBEBEB"/>
<path d="M21.0967 0H33.9543V5.37706H26.4737V10.7541H33.955V16.1309H21.0967V0ZM36.5262 0H49.3841V4.67568H41.9032V5.61075H49.3841V16.3649H36.5265V11.4548H44.0074V10.5198H36.5258L36.5262 0ZM51.956 0H64.8139V4.67568H57.333V5.61075H64.8139V16.3649H51.956V11.4548H59.4368V10.5198H51.9563L51.956 0Z" fill="black"/>
<path d="M68.1794 62.7045L70.0957 41.2172H43.5023V51.8333H58.4614L57.4954 62.7045H43.5023V73.3207H56.575L55.3424 87.0891L43.502 90.2849V101.33L65.2658 95.2979L65.4254 93.5043L67.9205 65.5552L68.1794 62.7045Z" fill="white"/>
</g>
<defs>
<clipPath id="clip0_3559_113">
<rect width="85.1" height="120" fill="white" transform="translate(0.989258)"/>
</clipPath>
</defs>
</svg>
