<svg width="167" height="120" viewBox="0 0 167 120" fill="none" xmlns="http://www.w3.org/2000/svg">
<g clip-path="url(#clip0_3559_99)">
<path d="M163.459 45.7278C159.72 43.1332 151.151 42.1602 144.451 43.4575C143.673 36.971 140.089 31.296 133.857 26.269L130.274 23.6744L127.78 27.4041C124.665 32.269 123.107 39.0798 123.574 45.5663C123.73 47.8359 124.509 51.8899 126.846 55.4575C124.665 56.7548 120.147 58.3764 114.226 58.3764H1.58202L1.27067 59.6737C0.179642 66.1596 0.179642 86.4292 12.9554 101.996C22.6151 113.833 36.9489 119.833 55.8006 119.833C96.6201 119.833 126.846 100.212 141.024 64.7001C146.633 64.8623 158.63 64.7001 164.706 52.5379C164.862 52.2136 165.173 51.565 166.264 49.1332L166.887 47.8359L163.459 45.7278ZM91.6346 0H74.4973V16.2156H91.6346V0ZM91.6346 19.4588H74.4973V35.6744H91.6346V19.4588ZM71.3805 19.4588H54.2432V35.6744H71.3805V19.4588ZM51.1265 19.4588H33.9885V35.6744H51.1265V19.4588ZM30.8724 38.9176H13.7345V55.1332H30.8718L30.8724 38.9176ZM51.1265 38.9176H33.9885V55.1332H51.1265V38.9176ZM71.3805 38.9176H54.2432V55.1332H71.3805V38.9176ZM91.6352 38.9176H74.4966V55.1332H91.6352V38.9176ZM111.889 38.9176H94.7507V55.1332H111.889V38.9176Z" fill="#2396ED"/>
</g>
<defs>
<clipPath id="clip0_3559_99">
<rect width="166.06" height="120" fill="white" transform="translate(0.830078)"/>
</clipPath>
</defs>
</svg>
