<svg width="121" height="120" viewBox="0 0 121 120" fill="none" xmlns="http://www.w3.org/2000/svg">
<path d="M74.3877 57.5625L32.8789 50.25V104.284C32.8784 104.871 32.9938 105.453 33.2186 105.995C33.4433 106.538 33.773 107.031 34.1886 107.446C34.6042 107.861 35.0977 108.189 35.6406 108.413C36.1836 108.637 36.7654 108.751 37.3527 108.75H108.978C109.566 108.752 110.148 108.639 110.692 108.415C111.236 108.192 111.73 107.863 112.147 107.448C112.563 107.033 112.893 106.54 113.119 105.997C113.344 105.454 113.459 104.872 113.459 104.284V84.375L74.3877 57.5625Z" fill="#185C37"/>
<path d="M74.3877 11.25H37.3527C36.7654 11.2485 36.1836 11.363 35.6406 11.5868C35.0977 11.8107 34.6042 12.1395 34.1886 12.5544C33.773 12.9693 33.4433 13.4622 33.2186 14.0048C32.9938 14.5474 32.8784 15.129 32.8789 15.7163V35.625L74.3877 60L96.3664 67.3125L113.459 60V35.625L74.3877 11.25Z" fill="#21A366"/>
<path d="M32.8789 35.625H74.3877V60H32.8789V35.625Z" fill="#107C41"/>
<path opacity="0.1" d="M62.5864 30.75H32.8789V91.6875H62.5864C63.7702 91.6816 64.9039 91.2095 65.742 90.3735C66.5801 89.5375 67.055 88.405 67.0639 87.2213V35.2162C67.055 34.0325 66.5801 32.9 65.742 32.064C64.9039 31.228 63.7702 30.7559 62.5864 30.75Z" fill="black"/>
<path opacity="0.2" d="M60.1452 33.1875H32.8789V94.125H60.1452C61.3289 94.1191 62.4627 93.647 63.3008 92.811C64.1389 91.975 64.6138 90.8425 64.6227 89.6588V37.6537C64.6138 36.47 64.1389 35.3375 63.3008 34.5015C62.4627 33.6655 61.3289 33.1934 60.1452 33.1875Z" fill="black"/>
<path opacity="0.2" d="M60.1452 33.1875H32.8789V89.25H60.1452C61.3289 89.2441 62.4627 88.772 63.3008 87.936C64.1389 87.1 64.6138 85.9675 64.6227 84.7837V37.6537C64.6138 36.47 64.1389 35.3375 63.3008 34.5015C62.4627 33.6655 61.3289 33.1934 60.1452 33.1875Z" fill="black"/>
<path opacity="0.2" d="M57.7039 33.1875H32.8789V89.25H57.7039C58.8877 89.2441 60.0214 88.772 60.8595 87.936C61.6976 87.1 62.1725 85.9675 62.1814 84.7837V37.6537C62.1725 36.47 61.6976 35.3375 60.8595 34.5015C60.0214 33.6655 58.8877 33.1934 57.7039 33.1875Z" fill="black"/>
<path d="M12.9365 33.1875H57.704C58.8898 33.1865 60.0276 33.6564 60.8672 34.4939C61.7068 35.3314 62.1795 36.4679 62.1815 37.6538V82.3463C62.1795 83.5321 61.7068 84.6687 60.8672 85.5062C60.0276 86.3436 58.8898 86.8135 57.704 86.8125H12.9365C12.3489 86.8145 11.7667 86.7004 11.2233 86.4768C10.6799 86.2532 10.186 85.9245 9.76999 85.5095C9.35397 85.0945 9.024 84.6015 8.79902 84.0586C8.57405 83.5158 8.45849 82.9339 8.45899 82.3463V37.6538C8.45849 37.0662 8.57405 36.4843 8.79902 35.9414C9.024 35.3986 9.35397 34.9055 9.76999 34.4906C10.186 34.0756 10.6799 33.7469 11.2233 33.5233C11.7667 33.2996 12.3489 33.1855 12.9365 33.1875Z" fill="url(#paint0_linear_3559_157)"/>
<path d="M22.334 74.5237L31.7502 59.9587L23.1252 45.4762H30.0515L34.7577 54.7499C35.1927 55.6274 35.5077 56.2799 35.6502 56.7149H35.714C36.0215 56.0124 36.3465 55.3299 36.689 54.6674L41.7215 45.4912H48.0965L39.2502 59.8912L48.3215 74.5349H41.5377L36.1002 64.3687C35.8485 63.9312 35.634 63.4734 35.459 62.9999H35.369C35.2101 63.4614 34.9987 63.903 34.739 64.3162L29.1402 74.5237H22.334Z" fill="white"/>
<path d="M108.981 11.25H74.3877V35.625H113.459V15.7163C113.459 15.1287 113.344 14.5468 113.119 14.0039C112.894 13.4611 112.564 12.968 112.148 12.5531C111.732 12.1381 111.238 11.8094 110.695 11.5858C110.151 11.3621 109.569 11.248 108.981 11.25Z" fill="#33C481"/>
<path d="M74.3877 60H113.459V84.375H74.3877V60Z" fill="#107C41"/>
<defs>
<linearGradient id="paint0_linear_3559_157" x1="17.8115" y1="29.6775" x2="52.829" y2="90.3225" gradientUnits="userSpaceOnUse">
<stop stop-color="#18884F"/>
<stop offset="0.5" stop-color="#117E43"/>
<stop offset="1" stop-color="#0B6631"/>
</linearGradient>
</defs>
</svg>
