<svg width="81" height="120" viewBox="0 0 81 120" fill="none" xmlns="http://www.w3.org/2000/svg">
<g clip-path="url(#clip0_3559_101)">
<path d="M20.8896 120C31.9296 120 40.8896 111.04 40.8896 100V80H20.8896C9.84965 80 0.889648 88.96 0.889648 100C0.889648 111.04 9.84965 120 20.8896 120Z" fill="#0ACF83"/>
<path d="M0.889648 60C0.889648 48.96 9.84965 40 20.8896 40H40.8896V80H20.8896C9.84965 80 0.889648 71.04 0.889648 60Z" fill="#A259FF"/>
<path d="M0.889648 20C0.889648 8.96 9.84965 0 20.8896 0H40.8896V40H20.8896C9.84965 40 0.889648 31.04 0.889648 20Z" fill="#F24E1E"/>
<path d="M40.8896 0H60.8896C71.9296 0 80.8896 8.96 80.8896 20C80.8896 31.04 71.9296 40 60.8896 40H40.8896V0Z" fill="#FF7262"/>
<path d="M80.8896 60C80.8896 71.04 71.9296 80 60.8896 80C49.8496 80 40.8896 71.04 40.8896 60C40.8896 48.96 49.8496 40 60.8896 40C71.9296 40 80.8896 48.96 80.8896 60Z" fill="#1ABCFE"/>
</g>
<defs>
<clipPath id="clip0_3559_101">
<rect width="80" height="120" fill="white" transform="translate(0.889648)"/>
</clipPath>
</defs>
</svg>
