<svg width="89" height="120" viewBox="0 0 89 120" fill="none" xmlns="http://www.w3.org/2000/svg">
<g clip-path="url(#clip0_3559_139)">
<path d="M0.522461 96.7514L1.24827 95.7353L35.5744 30.6023L35.6469 29.9128L20.5156 1.48986C19.2472 -0.890991 15.678 -0.288939 15.2623 2.37636L0.522461 96.7514Z" fill="#FFC24A"/>
<path d="M0.951172 95.9768L1.49989 94.9063L35.4667 30.4557L20.3727 1.91727C19.1184 -0.438631 15.9327 0.162052 15.5211 2.79932L0.951172 95.9768Z" fill="#FFA712"/>
<path d="M46.6783 51.412L57.9449 39.8735L46.6748 18.359C45.6051 16.3224 42.6181 16.3162 41.5596 18.359L35.5381 29.8417V30.8195L46.6783 51.412Z" fill="#F4BD62"/>
<path d="M46.4775 50.9313L57.431 39.7135L46.4775 18.8564C45.4375 16.8766 42.9107 16.669 41.8816 18.6547L35.8287 30.3159L35.6475 30.9121L46.4775 50.9313Z" fill="#FFA50E"/>
<path d="M0.522461 96.7515L0.85135 96.4206L2.04656 95.9351L45.9703 52.1744L46.5269 50.6595L35.5696 29.7795L0.522461 96.7515Z" fill="#F6820C"/>
<path d="M48.0852 118.821L87.8373 96.651L76.4855 26.7381C76.1303 24.5508 73.4469 23.6862 71.8811 25.2544L0.522461 96.7515L40.0466 118.819C41.2751 119.505 42.6587 119.865 44.0657 119.865C45.4727 119.866 46.8563 119.506 48.0852 118.821Z" fill="#FDE068"/>
<path d="M87.4815 96.4649L76.2158 27.083C75.8637 24.9121 73.6319 24.014 72.0781 25.5706L0.963867 96.6154L40.0541 118.464C41.2732 119.145 42.6463 119.503 44.0426 119.503C45.4389 119.503 46.8121 119.146 48.0316 118.466L87.4815 96.4649Z" fill="#FCCA3F"/>
<path d="M48.0855 118.168C46.8567 118.853 45.4731 119.212 44.0661 119.212C42.6592 119.212 41.2757 118.852 40.0472 118.166L0.841386 96.4154L0.523438 96.7515L40.0472 118.819C41.2758 119.505 42.6593 119.865 44.0663 119.865C45.4733 119.866 46.857 119.506 48.0858 118.821L87.838 96.651L87.7405 96.052L48.0855 118.168Z" fill="#EEAB37"/>
</g>
<defs>
<clipPath id="clip0_3559_139">
<rect width="87.53" height="120" fill="white" transform="translate(0.518555)"/>
</clipPath>
</defs>
</svg>
