<svg width="124" height="120" viewBox="0 0 124 120" fill="none" xmlns="http://www.w3.org/2000/svg">
<g clip-path="url(#clip0_3559_97)">
<path d="M62.3907 0C28.4624 0 0.950195 27.5074 0.950195 61.4405C0.950195 88.5864 18.5547 111.617 42.967 119.741C46.0376 120.31 47.1651 118.408 47.1651 116.785C47.1651 115.32 47.1075 110.481 47.0816 105.347C29.9888 109.063 26.382 98.0976 26.382 98.0976C23.587 90.996 19.5598 89.1072 19.5598 89.1072C13.9856 85.2941 19.9803 85.3728 19.9803 85.3728C26.1497 85.8058 29.3984 91.704 29.3984 91.704C34.8785 101.097 43.772 98.3813 47.2779 96.8112C47.8294 92.8406 49.4216 90.1296 51.1788 88.5955C37.532 87.0422 23.1862 81.7738 23.1862 58.2317C23.1862 51.5237 25.5862 46.0426 29.5164 41.7398C28.8785 40.1923 26.7756 33.9437 30.1116 25.4803C30.1116 25.4803 35.2712 23.8291 47.0124 31.7784C51.9132 30.4171 57.1692 29.7346 62.3907 29.711C67.6121 29.7346 72.8724 30.4166 77.7824 31.7784C89.5092 23.8296 94.6616 25.4808 94.6616 25.4808C98.0057 33.9432 95.9019 40.1928 95.264 41.7398C99.2033 46.0426 101.587 51.5237 101.587 58.2317C101.587 81.8299 87.2139 87.0259 73.5324 88.547C75.7361 90.4536 77.6998 94.1928 77.6998 99.925C77.6998 108.145 77.6288 114.762 77.6288 116.785C77.6288 118.421 78.7347 120.336 81.8489 119.733C106.248 111.6 123.83 88.5778 123.83 61.441C123.83 27.5074 96.3219 0 62.3907 0ZM23.9619 87.5232C23.8265 87.8285 23.346 87.9202 22.9088 87.7104C22.4628 87.5102 22.2128 87.0941 22.3568 86.7878C22.4892 86.4734 22.9707 86.3856 23.4152 86.5963C23.8616 86.797 24.116 87.217 23.9619 87.5232ZM26.984 90.2198C26.6912 90.4915 26.118 90.3653 25.7292 89.9362C25.3275 89.508 25.2521 88.9349 25.5492 88.6594C25.8516 88.3877 26.407 88.5149 26.8097 88.943C27.212 89.3765 27.2897 89.9453 26.984 90.2198ZM29.0576 93.6701C28.6808 93.9317 28.0654 93.6864 27.6848 93.1402C27.3084 92.5939 27.3084 91.9387 27.6929 91.6762C28.0745 91.4136 28.6808 91.6498 29.0662 92.1922C29.4416 92.7475 29.4416 93.4027 29.0571 93.6706M32.563 97.6666C32.2265 98.0381 31.5089 97.9382 30.9838 97.4314C30.4467 96.936 30.2974 96.2333 30.6353 95.8618C30.9761 95.4893 31.6976 95.5939 32.2265 96.097C32.7593 96.5914 32.9225 97.2994 32.563 97.6666ZM37.0952 99.0154C36.9464 99.4968 36.2552 99.7157 35.5596 99.5112C34.8646 99.3005 34.41 98.737 34.5502 98.2507C34.6947 97.7659 35.3888 97.5384 36.0896 97.7573C36.7836 97.9666 37.2396 98.5262 37.0952 99.0158M42.2523 99.5885C42.2696 100.095 41.6796 100.515 40.9491 100.524C40.2147 100.541 39.62 100.131 39.6118 99.6317C39.6118 99.1205 40.1888 98.7043 40.9236 98.6918C41.6542 98.6774 42.2523 99.0845 42.2523 99.5885ZM47.3187 99.3941C47.406 99.8885 46.8987 100.396 46.1729 100.532C45.4601 100.662 44.7996 100.356 44.7089 99.8664C44.6206 99.3595 45.1376 98.8517 45.8494 98.7206C46.5761 98.5944 47.226 98.8915 47.3187 99.3941Z" fill="#6F42C1"/>
</g>
<defs>
<clipPath id="clip0_3559_97">
<rect width="122.88" height="120" fill="white" transform="translate(0.950195)"/>
</clipPath>
</defs>
</svg>
