<svg width="86" height="120" viewBox="0 0 86 120" fill="none" xmlns="http://www.w3.org/2000/svg">
<g clip-path="url(#clip0_3559_107)">
<path d="M85.8402 23.5233L78.1146 110.07L43.3878 119.697L8.75663 110.083L1.03906 23.5233H85.8402Z" fill="#E44D26"/>
<path d="M43.4395 112.338L71.5005 104.559L78.1022 30.6007H43.4395V112.338Z" fill="#F16529"/>
<path d="M28.4214 51.8333H43.4397V41.2172H16.8193L17.0733 44.0653L19.6827 73.3207H43.4397V62.7045H29.3917L28.4214 51.8333ZM30.8141 78.6289H20.1571L21.6443 95.2979L43.3909 101.335L43.4397 101.321V90.2759L43.3932 90.2882L31.57 87.0957L30.8141 78.6289Z" fill="#EBEBEB"/>
<path d="M8.92871 0H14.3237V5.33019H19.259V0H24.6544V16.1412H19.2593V10.7362H14.3241V16.1412H8.92904L8.92871 0ZM31.7487 5.3528H26.9998V0H41.8965V5.3528H37.1447V16.1412H31.7497V5.3528H31.7487ZM44.2606 0H49.8859L53.3463 5.67158L56.8034 0H62.4311V16.1412H57.058V8.14072L53.3463 13.8798H53.2532L49.5392 8.14072V16.1412H44.2606V0ZM65.116 0H70.5126V10.806H78.0996V16.1412H65.1156L65.116 0Z" fill="black"/>
<path d="M43.4027 73.3207H56.4754L55.2428 87.0891L43.4023 90.2849V101.33L65.1662 95.2979L65.3258 93.5043L67.8209 65.5552L68.0798 62.7045H43.4027V73.3207ZM43.4027 51.8074V51.8333H69.0458L69.2585 49.4473L69.7425 44.0653L69.9961 41.2172H43.4027V51.8074Z" fill="white"/>
</g>
<defs>
<clipPath id="clip0_3559_107">
<rect width="85.1" height="120" fill="white" transform="translate(0.889648)"/>
</clipPath>
</defs>
</svg>
