<svg width="121" height="120" viewBox="0 0 121 120" fill="none" xmlns="http://www.w3.org/2000/svg">
<g clip-path="url(#clip0_3559_119)">
<path d="M0.0888672 0H120.089V120H0.0888672V0Z" fill="#F7DF1E"/>
<path d="M31.6411 100.281L40.8239 94.7232C42.5958 97.8643 44.2073 100.522 48.0731 100.522C51.7786 100.522 54.1153 99.0727 54.1153 93.4346V55.0918H65.392V93.594C65.392 105.274 58.5455 110.59 48.5564 110.59C39.5353 110.59 34.2989 105.918 31.6406 100.28M71.5172 99.0722L80.6991 93.7562C83.1164 97.7035 86.258 100.603 91.8155 100.603C96.4884 100.603 99.4678 98.2669 99.4678 95.0447C99.4678 91.1785 96.4069 89.8088 91.2516 87.5541L88.433 86.3447C80.2969 82.8821 74.9002 78.5321 74.9002 69.3493C74.9002 60.8912 81.3441 54.4468 91.4133 54.4468C98.5824 54.4468 103.738 56.9443 107.443 63.4688L98.662 69.1079C96.7284 65.6443 94.635 64.2751 91.4128 64.2751C88.11 64.2751 86.0156 66.3694 86.0156 69.1079C86.0156 72.4908 88.11 73.861 92.9428 75.9554L95.7619 77.1633C105.348 81.2719 110.745 85.4602 110.745 94.884C110.745 105.034 102.77 110.592 92.0569 110.592C81.5855 110.592 74.8191 105.598 71.5167 99.0727" fill="black"/>
</g>
<defs>
<clipPath id="clip0_3559_119">
<rect width="120" height="120" fill="white" transform="translate(0.0888672)"/>
</clipPath>
</defs>
</svg>
