<svg width="177" height="120" viewBox="0 0 177 120" fill="none" xmlns="http://www.w3.org/2000/svg">
<g clip-path="url(#clip0_3559_133)">
<path d="M52.8409 79.1852L58.191 96.5446C59.3931 100.486 59.8944 103.237 59.6936 104.806C62.6197 96.9689 64.6643 88.4287 65.8274 79.1852H72.2606C69.4941 94.2339 65.8463 105.169 61.3172 111.991C57.7888 117.248 53.9233 119.876 49.714 119.876C48.5917 119.876 47.2081 119.537 45.5663 118.864V115.236C46.3685 115.354 47.3096 115.417 48.392 115.417C50.3553 115.416 51.9388 114.873 53.1425 113.786C54.5842 112.463 55.3059 110.976 55.3059 109.327C55.3059 108.201 54.743 105.891 53.6225 102.396L46.168 79.1852H52.8409ZM11.8941 68.5155L21.6935 98.4144H21.754L31.6136 68.5155H39.6691C41.433 83.3432 42.4748 96.9101 42.7946 109.208H36.0031C35.7638 97.7123 35.1027 86.902 34.0198 76.7766H33.9607L23.6187 109.208H18.4466L8.16721 76.7766H8.10669C7.34451 86.5008 6.8636 97.3111 6.66394 109.208H0.470703C0.870932 94.7388 1.87254 81.176 3.47552 68.5155H11.8941Z" fill="#00758F"/>
<path d="M121.674 67.9117C132.215 67.9117 137.485 74.6462 137.485 88.1085C137.485 95.424 135.9 100.95 132.733 104.683C132.162 105.365 131.532 105.954 130.867 106.5L138.327 110.189L138.32 110.189L135.671 114.762L125.957 109.094C124.346 109.571 122.575 109.809 120.644 109.809C115.468 109.809 111.602 108.301 109.046 105.288C106.24 101.955 104.838 96.7072 104.838 89.5547C104.838 82.2804 106.42 76.7756 109.588 73.0377C112.474 69.6185 116.503 67.9117 121.674 67.9117ZM89.394 67.9705C93.1615 67.9705 96.5871 68.9787 99.6727 70.9877L98.1055 74.4801C95.4652 73.3578 92.862 72.7942 90.2949 72.7942C88.2119 72.7942 86.6068 73.2956 85.488 74.3044C84.3629 75.3043 83.667 76.5909 83.667 78.1595C83.667 80.5698 85.3841 82.66 88.5547 84.426C89.5934 84.9938 90.6285 85.5681 91.6599 86.149L91.8965 86.282L92.0151 86.3487L92.252 86.4818L92.3703 86.5485L92.6068 86.6819C95.0068 88.0349 97.2652 89.3264 97.2652 89.3264C100.435 91.5768 102.016 93.9761 102.016 97.9279C102.016 101.379 100.751 104.212 98.23 106.429C95.7072 108.635 92.318 109.742 88.0737 109.742C84.104 109.742 80.2568 108.468 76.5303 105.942L78.2735 102.447C81.4805 104.054 84.3825 104.857 86.9885 104.857C89.4325 104.857 91.3456 104.312 92.7296 103.234C94.1108 102.149 94.9384 100.635 94.9384 98.7149C94.9384 96.2988 93.2577 94.2333 90.1745 92.5007C89.2095 91.9675 88.2473 91.4292 87.288 90.8857L87.0518 90.752C86.6178 90.5068 86.1808 90.2585 85.7527 90.0155L85.5206 89.8834C83.4387 88.6992 81.6387 87.6646 81.6387 87.6646C78.5565 85.4101 77.011 82.9911 77.011 79.0054C77.011 75.709 78.1635 73.0446 80.4652 71.0176C82.7726 68.9862 85.7488 67.9705 89.394 67.9705ZM149.874 68.5152V104.202H162.678V109.207H143.38V68.5155L149.874 68.5152ZM169.792 104.217V105.063H168.385V109.203H167.308V105.063H165.846V104.217H169.792ZM172.392 104.217L173.743 107.616L174.985 104.217H176.511V109.203H175.496V105.408L174.083 109.203H173.352L171.936 105.408H171.882V109.203H170.922V104.217H172.392ZM121.011 72.916C114.799 72.916 111.691 78.0426 111.691 88.289C111.691 94.1584 112.515 98.4144 114.159 101.067C115.681 103.522 118.066 104.747 121.313 104.747C127.524 104.747 130.632 99.5807 130.632 89.2525C130.632 83.4653 129.808 79.2457 128.166 76.5916C126.642 74.1421 124.259 72.916 121.011 72.916" fill="#F29111"/>
<path d="M104.729 2.5214C106.79 -2.54198 113.995 1.29252 116.791 3.06123C117.477 3.50375 118.263 4.43865 119.048 4.78421C120.274 4.83234 121.499 4.92828 122.727 4.97951C125.03 5.52071 127.187 5.96289 129.002 6.99647C137.435 11.9632 142.926 17.0246 147.978 25.3847C149.058 27.1554 149.597 29.0717 150.479 30.9879C151.703 33.8442 153.079 36.8424 154.5 39.5433C155.136 40.8237 155.628 42.2476 156.511 43.329C156.856 43.8234 157.835 43.9692 158.421 44.2646C160.04 45.1025 162.001 45.7386 163.524 46.722C166.367 48.4948 169.116 50.6074 171.615 52.7701C172.546 53.605 173.181 54.7867 174.068 55.6697V56.1153C173.281 56.357 172.496 56.6046 171.71 56.803C169.994 57.2438 168.474 57.1441 166.809 57.5852C165.78 57.8837 164.503 58.2774 163.424 58.3775L163.524 58.4779C164.158 60.2916 167.593 61.7667 169.163 62.8515C171.071 64.2282 172.839 65.8979 174.261 67.8155C174.753 68.3048 175.244 68.7501 175.733 69.238C176.075 69.7324 176.171 70.372 176.517 70.8128V70.962C176.134 70.8268 175.858 70.569 175.598 70.2994L175.442 70.1368C175.286 69.9752 175.129 69.8163 174.95 69.6853C173.867 68.946 172.792 68.0617 171.71 67.3744C169.849 66.1936 167.691 65.5083 165.78 64.3231C164.7 63.6351 163.67 62.8515 162.64 62.0641C161.707 61.374 160.679 60.0489 160.092 59.0655C159.747 58.5222 159.699 57.8837 159.304 57.4907C159.375 56.8343 159.976 56.6393 160.583 56.4791L160.723 56.4423C160.932 56.388 161.137 56.3337 161.316 56.2618C163.865 55.1794 166.904 54.7867 170.829 54.8851C170.681 53.8996 168.229 52.6718 167.446 52.0817C165.874 50.9491 164.211 49.7674 162.544 48.7365C161.66 48.1967 160.138 47.8027 159.16 47.3615C157.835 46.8203 154.893 46.2795 154.159 45.2486C152.912 43.6236 152.017 41.6854 151.148 39.7276L150.911 39.1933L150.674 38.6593C149.647 36.3016 148.37 33.8435 147.34 31.4294C146.802 30.2517 146.555 29.2181 145.965 28.0886C142.387 21.1575 137.091 15.3545 130.669 11.2735C128.559 9.94558 126.206 8.7167 123.609 7.88151C122.137 7.43693 120.37 7.68277 118.802 7.34169H117.77C116.889 7.09343 116.154 6.15957 115.466 5.66719C113.948 4.63636 112.428 3.94421 110.612 3.20873C109.976 2.91372 108.16 2.22673 107.526 2.76759C107.133 2.86627 106.934 3.01447 106.837 3.40851C106.447 3.99647 106.79 4.8822 107.033 5.42444C107.77 6.99578 108.798 7.92965 109.732 9.25756C110.563 10.4352 111.595 11.7631 112.184 13.0436C113.455 15.796 114.046 18.8455 115.224 21.5976C115.661 22.6326 116.352 23.8102 116.987 24.7437C117.526 25.4847 118.506 26.0204 118.802 26.9584C119.393 27.9418 117.918 31.1866 117.576 32.2171C116.299 36.2493 116.547 41.8542 118.017 45.3494L118.096 45.5337L118.174 45.7204C118.711 47.0005 119.286 48.3789 120.714 48.7369C120.813 48.6392 120.714 48.6905 120.909 48.6392C121.255 45.9339 121.352 43.3286 122.285 41.2119C122.823 39.8885 123.899 38.9529 124.637 37.8726C125.128 38.1669 125.128 39.0544 125.421 39.6416C126.06 41.1648 126.745 42.8349 127.532 44.3625C129.146 47.5087 130.963 50.5589 133.022 53.311C133.711 54.294 134.689 55.3761 135.571 56.2615C135.965 56.6043 136.405 56.8023 136.7 57.2435H136.796V57.392C135.325 56.8498 134.393 55.3279 133.22 54.4395C131.011 52.7694 128.366 50.2615 126.843 47.8549C126.206 46.4734 125.518 45.1493 124.832 43.7746V43.6752C124.538 44.0679 124.637 44.4578 124.49 45.0519C123.853 47.5087 124.343 50.3113 122.137 51.195C119.636 52.2299 117.77 49.525 116.987 48.2957C114.486 44.2157 113.8 37.3327 115.565 31.7766C115.956 30.5467 116.01 29.0717 116.694 28.0897C116.546 27.2019 115.862 26.9591 115.466 26.4152C114.78 25.4854 114.192 24.4023 113.655 23.3698C112.623 21.3528 111.888 18.9428 111.105 16.7797C110.76 15.8964 110.661 15.0097 110.318 14.1734C109.732 12.8971 108.652 11.6166 107.819 10.4875C106.691 8.86455 103.405 5.71911 104.729 2.5214ZM120.811 12.1541C120.942 12.2854 121.101 12.4003 121.264 12.5134L121.462 12.6488C121.725 12.8311 121.98 13.0229 122.136 13.2843C122.383 13.6302 122.429 13.9716 122.726 14.3182C122.726 15.5 122.383 16.2856 121.692 16.7753C121.692 16.7753 121.645 16.8268 121.596 16.875C121.204 16.0872 120.861 15.3036 120.466 14.5166C119.98 13.8296 119.292 13.2846 118.896 12.4996H118.801V12.4009C119.393 12.2548 119.98 12.1541 120.811 12.1541Z" fill="#00758F"/>
</g>
<defs>
<clipPath id="clip0_3559_133">
<rect width="176.05" height="120" fill="white" transform="translate(0.46875)"/>
</clipPath>
</defs>
</svg>
