<svg width="229" height="120" viewBox="0 0 229 120" fill="none" xmlns="http://www.w3.org/2000/svg">
<g clip-path="url(#clip0_3559_128)">
<path d="M114.689 119.644C177.527 119.644 228.467 92.8611 228.467 59.8222C228.467 26.7833 177.527 0 114.689 0C51.8512 0 0.911133 26.7833 0.911133 59.8222C0.911133 92.8611 51.8512 119.644 114.689 119.644Z" fill="url(#paint0_radial_3559_128)"/>
<path d="M114.689 115.2C175.072 115.2 224.022 90.4065 224.022 59.8222C224.022 29.2379 175.072 4.44446 114.689 4.44446C54.3057 4.44446 5.35547 29.2379 5.35547 59.8222C5.35547 90.4065 54.3057 115.2 114.689 115.2Z" fill="#6181B6"/>
<path d="M136.823 77.7777L142.245 49.8666C143.489 43.5555 142.423 38.8444 139.223 35.9111C136.112 33.0666 130.778 31.6444 122.956 31.6444H113.534L116.201 17.7777C116.289 17.2444 116.201 16.7111 115.845 16.2666C115.489 15.8222 115.045 15.6444 114.512 15.6444H101.534C100.645 15.6444 99.9339 16.2666 99.7562 17.0666L93.9784 46.6666C93.445 43.2889 92.2006 40.4444 90.0673 38.1333C86.2451 33.7777 80.2895 31.5555 72.2006 31.5555H47.2228C46.3339 31.5555 45.6228 32.1777 45.4451 32.9777L33.8006 93.0666C33.7117 93.6 33.8006 94.1333 34.1562 94.5777C34.5117 95.0222 34.9562 95.2 35.4895 95.2H48.5562C49.4451 95.2 50.1562 94.5777 50.3339 93.7777L53.1784 79.2889H62.8673C67.9339 79.2889 72.2895 78.7555 75.5784 77.6889C79.0451 76.5333 82.1562 74.6666 84.9117 72.0889C87.1339 70.0444 89.0006 67.7333 90.4228 65.2444L88.1117 77.2444C88.0228 77.7777 88.1117 78.3111 88.4673 78.7555C88.8228 79.2 89.2673 79.3777 89.8006 79.3777H102.778C103.667 79.3777 104.378 78.7555 104.556 77.9555L110.956 45.0666H119.845C123.667 45.0666 124.734 45.7777 125.089 46.1333C125.356 46.4 125.889 47.4666 125.267 50.7555L120.112 77.3333C120.023 77.8666 120.112 78.4 120.467 78.8444C120.823 79.2889 121.267 79.4666 121.801 79.4666H135.134C135.934 79.2 136.645 78.5777 136.823 77.7777ZM76.7339 54.6666C75.9339 58.8444 74.4228 61.8666 72.2006 63.5555C69.9784 65.2444 66.3339 66.1333 61.5339 66.1333H55.7562L59.9339 44.6222H67.4006C72.9117 44.6222 75.1339 45.7777 76.0228 46.7555C77.1784 48.1777 77.4451 50.9333 76.7339 54.6666ZM192.29 38.1333C188.467 33.7777 182.512 31.5555 174.423 31.5555H149.267C148.378 31.5555 147.667 32.1777 147.489 32.9777L135.845 92.9777C135.756 93.5111 135.845 94.0444 136.201 94.4889C136.556 94.9333 137.001 95.1111 137.534 95.1111H150.601C151.489 95.1111 152.201 94.4889 152.378 93.6889L155.223 79.2H164.912C169.978 79.2 174.334 78.6666 177.623 77.6C181.09 76.4444 184.201 74.5777 186.956 72C189.267 69.8666 191.223 67.4666 192.645 64.8889C194.067 62.3111 195.134 59.4666 195.756 56.3555C197.267 48.6222 196.112 42.5777 192.29 38.1333ZM178.689 54.6666C177.889 58.8444 176.378 61.8666 174.156 63.5555C171.934 65.2444 168.289 66.1333 163.489 66.1333H157.712L161.89 44.6222H169.356C174.867 44.6222 177.089 45.7777 177.978 46.7555C179.223 48.1777 179.489 50.9333 178.689 54.6666Z" fill="white"/>
<path d="M67.4004 42.8445C72.3781 42.8445 75.667 43.7333 77.3559 45.6C79.0448 47.4667 79.4004 50.5778 78.5115 55.0222C77.6226 59.6445 75.8448 63.0222 73.267 64.9778C70.6892 66.9333 66.7781 67.9111 61.5337 67.9111H53.6226L58.5115 42.8445H67.4004ZM35.5781 93.3333H48.6448L51.7559 77.4222H62.9559C67.9337 77.4222 71.9337 76.8889 75.1337 75.8222C78.3337 74.7556 81.1781 73.0667 83.8448 70.5778C86.067 68.5334 87.8448 66.3111 89.1781 63.9111C90.5115 61.5111 91.4892 58.8445 92.0226 55.9111C93.4448 48.8 92.3781 43.2889 88.9115 39.2889C85.4448 35.2889 79.9337 33.3334 72.3781 33.3334H47.2226L35.5781 93.3333ZM101.623 17.4222H114.6L111.489 33.3334H123.045C130.334 33.3334 135.311 34.5778 138.067 37.1556C140.823 39.7334 141.623 43.8222 140.556 49.5111L135.134 77.4222H121.978L127.134 50.8445C127.756 47.8222 127.489 45.7778 126.511 44.7111C125.534 43.6445 123.311 43.0222 120.023 43.0222H109.623L102.956 77.4222H89.9781L101.623 17.4222ZM169.356 42.8445C174.334 42.8445 177.623 43.7333 179.311 45.6C181 47.4667 181.356 50.5778 180.467 55.0222C179.578 59.6445 177.8 63.0222 175.223 64.9778C172.645 66.9333 168.734 67.9111 163.489 67.9111H155.578L160.467 42.8445H169.356ZM137.534 93.3333H150.6L153.711 77.4222H164.911C169.889 77.4222 173.889 76.8889 177.089 75.8222C180.289 74.7556 183.134 73.0667 185.8 70.5778C188.023 68.5334 189.8 66.3111 191.134 63.9111C192.467 61.5111 193.445 58.8445 193.978 55.9111C195.4 48.8 194.334 43.2889 190.867 39.2889C187.4 35.2889 181.889 33.3334 174.334 33.3334H149.178L137.534 93.3333Z" fill="#000004"/>
</g>
<defs>
<radialGradient id="paint0_radial_3559_128" cx="0" cy="0" r="1" gradientUnits="userSpaceOnUse" gradientTransform="translate(69.2236 21.0378) scale(149.418 149.418)">
<stop stop-color="white"/>
<stop offset="0.5" stop-color="#4C6B97"/>
<stop offset="1" stop-color="#231F20"/>
</radialGradient>
<clipPath id="clip0_3559_128">
<rect width="227.56" height="120" fill="white" transform="translate(0.90918)"/>
</clipPath>
</defs>
</svg>
