<svg width="121" height="120" viewBox="0 0 121 120" fill="none" xmlns="http://www.w3.org/2000/svg">
<g clip-path="url(#clip0_3559_150)">
<path d="M59.779 0.0339355C29.2698 0.0339355 31.1748 13.2645 31.1748 13.2645L31.2087 26.9718H60.323V31.0871H19.6449C19.6449 31.0871 0.12207 28.873 0.12207 59.6565C0.12207 90.441 17.1621 89.3492 17.1621 89.3492H27.3315V75.0641C27.3315 75.0641 26.7832 58.0241 44.0995 58.0241H72.9757C72.9757 58.0241 89.1992 58.2862 89.1992 42.3445V15.9859C89.1992 15.9859 91.6632 0.0339355 59.779 0.0339355ZM43.7254 9.25182C44.4134 9.2512 45.0947 9.38625 45.7305 9.64925C46.3662 9.91225 46.9438 10.298 47.4303 10.7845C47.9168 11.271 48.3026 11.8486 48.5656 12.4844C48.8286 13.1201 48.9636 13.8015 48.963 14.4895C48.9636 15.1775 48.8286 15.8588 48.5656 16.4946C48.3026 17.1303 47.9168 17.7079 47.4303 18.1944C46.9438 18.6809 46.3662 19.0667 45.7305 19.3297C45.0947 19.5927 44.4134 19.7277 43.7254 19.7271C43.0374 19.7277 42.356 19.5927 41.7203 19.3297C41.0845 19.0667 40.5069 18.6809 40.0204 18.1944C39.5339 17.7079 39.1481 17.1303 38.8851 16.4946C38.6222 15.8588 38.4871 15.1775 38.4877 14.4895C38.4871 13.8015 38.6222 13.1201 38.8851 12.4844C39.1481 11.8486 39.5339 11.271 40.0204 10.7845C40.5069 10.298 41.0845 9.91225 41.7203 9.64925C42.356 9.38625 43.0374 9.2512 43.7254 9.25182Z" fill="url(#paint0_linear_3559_150)"/>
<path d="M60.6455 119.589C91.1547 119.589 89.2497 106.358 89.2497 106.358L89.2159 92.6513H60.101V88.5361H100.779C100.779 88.5361 120.302 90.7502 120.302 59.9657C120.302 29.1817 103.262 30.2735 103.262 30.2735H93.0926V44.5582C93.0926 44.5582 93.6408 61.5982 76.3246 61.5982H47.4483C47.4483 61.5982 31.2248 61.3361 31.2248 77.2782V103.637C31.2248 103.637 28.7613 119.589 60.645 119.589M76.6987 110.372C76.0107 110.372 75.3293 110.237 74.6936 109.974C74.0578 109.711 73.4802 109.326 72.9937 108.839C72.5072 108.353 72.1215 107.775 71.8585 107.139C71.5955 106.504 71.4604 105.822 71.461 105.134C71.4604 104.446 71.5954 103.765 71.8583 103.129C72.1213 102.493 72.5071 101.915 72.9936 101.429C73.48 100.942 74.0577 100.557 74.6935 100.294C75.3293 100.031 76.0106 99.8954 76.6987 99.8961C77.3867 99.8954 78.068 100.03 78.7038 100.293C79.3395 100.556 79.9172 100.942 80.4036 101.429C80.8901 101.915 81.2759 102.493 81.5389 103.129C81.8019 103.764 81.9369 104.446 81.9363 105.134C81.9369 105.822 81.8019 106.503 81.5389 107.139C81.2759 107.775 80.8901 108.352 80.4036 108.839C79.9172 109.325 79.3395 109.711 78.7038 109.974C78.068 110.237 77.3867 110.372 76.6987 110.372Z" fill="url(#paint1_linear_3559_150)"/>
</g>
<defs>
<linearGradient id="paint0_linear_3559_150" x1="1155.05" y1="1075.36" x2="7110.79" y2="6971.69" gradientUnits="userSpaceOnUse">
<stop stop-color="#387EB8"/>
<stop offset="1" stop-color="#366994"/>
</linearGradient>
<linearGradient id="paint1_linear_3559_150" x1="1735.89" y1="1868.39" x2="8131.68" y2="7914.53" gradientUnits="userSpaceOnUse">
<stop stop-color="#FFE052"/>
<stop offset="1" stop-color="#FFC331"/>
</linearGradient>
<clipPath id="clip0_3559_150">
<rect width="120.48" height="120" fill="white" transform="translate(0.0488281)"/>
</clipPath>
</defs>
</svg>
