<svg width="135" height="120" viewBox="0 0 135 120" fill="none" xmlns="http://www.w3.org/2000/svg">
<g clip-path="url(#clip0_3559_122)">
<path d="M110.871 38.8546C109.437 38.3628 107.991 37.907 106.535 37.4878C106.779 36.4878 107.005 35.4999 107.205 34.5294C110.488 18.592 108.341 5.75254 101.01 1.52517C93.9813 -2.52746 82.4861 1.69833 70.8766 11.802C69.7324 12.7995 68.6136 13.8258 67.5213 14.8799C66.7901 14.179 66.0459 13.4917 65.2892 12.8183C53.1219 2.01517 40.9261 -2.53799 33.6029 1.70149C26.5803 5.76675 24.5008 17.8368 27.4566 32.941C27.7507 34.4369 28.0827 35.9251 28.4524 37.4041C26.7261 37.8946 25.0603 38.4167 23.4661 38.9725C9.20082 43.9462 0.0908203 51.7404 0.0908203 59.8252C0.0908203 68.1752 9.87082 76.5504 24.7287 81.6289C25.9333 82.0388 27.1479 82.4187 28.3713 82.7683C27.9741 84.3614 27.6214 85.9651 27.3135 87.5778C24.4956 102.42 26.6961 114.205 33.6998 118.244C40.9335 122.416 53.0745 118.128 64.8961 107.794C65.8546 106.954 66.7921 106.09 67.7077 105.203C68.8906 106.344 70.1051 107.453 71.3498 108.526C82.8013 118.38 94.1108 122.359 101.108 118.308C108.335 114.125 110.683 101.465 107.634 86.062C107.394 84.8553 107.124 83.6546 106.826 82.461C107.679 82.2083 108.516 81.9483 109.331 81.6778C124.778 76.5604 134.828 68.2868 134.828 59.8252C134.828 51.711 125.423 43.8641 110.871 38.8546ZM107.521 76.2147C106.784 76.4582 106.029 76.6941 105.258 76.9225C103.553 71.5241 101.252 65.7841 98.4356 59.8531C101.123 54.0636 103.336 48.3968 104.993 43.0336C106.371 43.4325 107.709 43.8531 108.998 44.2968C121.467 48.5894 129.072 54.9352 129.072 59.8252C129.072 65.0336 120.858 71.7952 107.521 76.2147ZM101.988 87.1799C103.336 93.9904 103.528 100.148 102.635 104.963C101.833 109.288 100.219 112.172 98.2235 113.327C93.9777 115.785 84.8971 112.59 75.104 104.163C73.9463 103.165 72.8166 102.135 71.7161 101.074C75.5129 96.9215 79.3071 92.0947 83.0103 86.7336C89.524 86.1557 95.6777 85.2104 101.258 83.9204C101.534 85.0299 101.777 86.1164 101.988 87.1799ZM46.0256 112.903C41.8771 114.367 38.5729 114.409 36.5756 113.258C32.3256 110.807 30.5587 101.344 32.9687 88.6515C33.2552 87.1516 33.5832 85.66 33.9524 84.1783C39.4713 85.3994 45.5803 86.2773 52.1092 86.8068C55.8377 92.0525 59.7413 96.8741 63.6756 101.096C62.8394 101.905 61.9836 102.694 61.1087 103.46C55.8808 108.03 50.6424 111.272 46.0256 112.903ZM26.5908 76.1825C20.0208 73.9368 14.595 71.0183 10.8761 67.8336C7.53398 64.972 5.84714 62.1304 5.84714 59.8252C5.84714 54.9189 13.1613 48.661 25.3608 44.4078C26.8413 43.892 28.3908 43.4052 29.9987 42.9483C31.685 48.4325 33.8966 54.1668 36.5656 59.9652C33.8619 65.8494 31.6187 71.6752 29.9161 77.2241C28.7993 76.9042 27.6906 76.5569 26.5908 76.1825ZM33.1056 31.8352C30.5735 18.8946 32.255 9.13307 36.4871 6.68307C40.9945 4.07359 50.9619 7.79412 61.4677 17.1225C62.1528 17.7322 62.8267 18.3542 63.4892 18.9883C59.5745 23.192 55.7066 27.9778 52.0113 33.1925C45.6745 33.7799 39.6087 34.7231 34.0319 35.9868C33.6882 34.6111 33.3793 33.2264 33.1056 31.8352ZM91.225 46.1873C89.9078 43.912 88.5417 41.6653 87.1277 39.4489C91.4266 39.9925 95.5456 40.7141 99.4135 41.5962C98.2524 45.3183 96.805 49.2094 95.1014 53.1989C93.8561 50.8361 92.5637 48.4984 91.225 46.1873ZM67.524 23.1025C70.1787 25.9789 72.8377 29.1899 75.4529 32.6741C70.1477 32.4235 64.8336 32.4225 59.5282 32.671C62.1461 29.2189 64.8277 26.012 67.524 23.1025ZM43.6708 46.2262C42.3489 48.5188 41.0806 50.8418 39.8671 53.1936C38.1913 49.2183 36.7571 45.3094 35.5861 41.5346C39.4303 40.6746 43.5298 39.9715 47.8013 39.4378C46.3716 41.6678 44.9944 43.9316 43.6708 46.2262ZM47.924 80.6215C43.5108 80.1289 39.3498 79.462 35.5066 78.6252C36.6961 74.7831 38.1619 70.791 39.874 66.7304C41.0923 69.0839 42.3658 71.4084 43.6935 73.702C45.0587 76.0599 46.4724 78.3694 47.924 80.6215ZM67.6829 96.9531C64.9545 94.0099 62.2335 90.7536 59.5761 87.2515C62.1561 87.3525 64.7861 87.4041 67.4592 87.4041C70.2056 87.4041 72.9203 87.3425 75.5924 87.2236C72.9687 90.7889 70.3198 94.0499 67.6829 96.9531ZM95.1556 66.5231C96.9566 70.6283 98.4745 74.5994 99.6798 78.3757C95.7735 79.2673 91.5556 79.9852 87.1114 80.5183C88.5355 78.2608 89.9145 75.975 91.2477 73.6625C92.6032 71.312 93.9061 68.9316 95.1556 66.5231ZM86.2619 70.7868C84.2208 74.3321 82.0651 77.8103 79.7982 81.2157C75.6917 81.5067 71.5761 81.6512 67.4592 81.6489C63.2661 81.6489 59.1877 81.5183 55.2603 81.2636C52.934 77.8662 50.7372 74.3819 48.6745 70.8183C46.6213 67.2737 44.7041 63.6524 42.9261 59.962C44.6996 56.2708 46.6115 52.6478 48.6577 49.1004L48.6571 49.101C50.7023 45.5526 52.8816 42.0832 55.1903 38.7004C59.1971 38.3973 63.3061 38.2394 67.4587 38.2394C71.6303 38.2394 75.745 38.3989 79.7508 38.7041C82.0363 42.0819 84.2016 45.5393 86.2429 49.0699C88.2956 52.6096 90.2328 56.215 92.0514 59.8804C90.2514 63.5833 88.3204 67.2211 86.2619 70.7868ZM98.1356 6.51096C102.647 9.11307 104.402 19.6062 101.567 33.3668C101.385 34.2453 101.184 35.1383 100.962 36.0457C95.3713 34.7552 89.3014 33.7957 82.9461 33.1994C79.244 27.9273 75.4077 23.1341 71.5566 18.9846C72.5659 18.0118 73.5992 17.0641 74.6556 16.1425C84.6029 7.48622 93.8998 4.06833 98.1356 6.51096ZM67.4592 47.7936C74.104 47.7936 79.4908 53.1804 79.4908 59.8252C79.4908 66.4699 74.104 71.8568 67.4592 71.8568C60.8145 71.8568 55.4277 66.4699 55.4277 59.8252C55.4277 53.1804 60.8145 47.7936 67.4592 47.7936Z" fill="#00D8FF"/>
</g>
<defs>
<clipPath id="clip0_3559_122">
<rect width="134.74" height="120" fill="white" transform="translate(0.0888672)"/>
</clipPath>
</defs>
</svg>
