<svg width="220" height="120" viewBox="0 0 220 120" fill="none" xmlns="http://www.w3.org/2000/svg">
<g clip-path="url(#clip0_3559_153)">
<path d="M106.72 1.87023C108.366 -0.62406 112.084 -0.62406 113.792 1.87023L148.723 53.9417L185.855 109.244C185.416 110.024 184.91 110.764 184.343 111.456C183.956 111.918 183.589 112.354 183.131 112.803C183.031 112.899 182.933 112.974 182.813 113.065L182.684 113.163C182.264 113.477 181.832 113.774 181.387 114.053C181.027 114.279 180.729 114.477 180.299 114.684C179.87 114.891 179.183 115.14 178.77 115.281C178.356 115.425 178.218 115.473 177.913 115.54C177.76 115.57 177.608 115.6 177.456 115.619C177.352 115.638 177.248 115.654 177.145 115.668C177.127 115.674 177.102 115.674 177.085 115.68L176.62 115.735C176.133 115.784 175.627 115.809 175.109 115.809C132.02 120.506 88.5471 120.506 45.4576 115.809C45.4085 115.81 45.3593 115.807 45.3102 115.802H45.1645L45.0968 115.796H45.0308C44.981 115.79 44.9322 115.79 44.8842 115.784H44.8353C44.7676 115.778 44.7068 115.778 44.6408 115.772C44.2379 115.741 43.7699 115.64 43.4339 115.565C43.097 115.497 42.8965 115.443 42.617 115.381C39.2999 114.595 36.2536 112.595 34.8573 109.359C34.8205 109.274 34.7896 109.189 34.7528 109.103L34.7476 109.085L0.723326 22.3071C-0.191246 19.8694 2.30904 17.4299 4.7459 18.5888C4.80761 18.5888 4.92933 18.5888 4.99104 18.6497L71.7642 53.9408L106.72 1.87023ZM215.582 18.6505C218.027 17.3099 220.648 19.6251 219.794 22.1854V22.3079L185.856 109.245L148.723 53.9417L215.522 18.6505H215.582Z" fill="#FF4B4B"/>
<path d="M215.582 18.6506H215.523L148.724 53.9417L185.856 109.245L219.794 22.308V22.1854C220.648 19.6251 218.027 17.31 215.582 18.6506Z" fill="#7D353B"/>
<path d="M113.791 1.87023C112.084 -0.62406 108.365 -0.62406 106.72 1.87023L71.7637 53.9417L110.231 74.2757L183.131 112.803C183.588 112.354 183.955 111.918 184.343 111.457C184.91 110.764 185.416 110.024 185.855 109.244L148.723 53.9417L113.791 1.87023Z" fill="#BD4043"/>
</g>
<defs>
<clipPath id="clip0_3559_153">
<rect width="219.43" height="120" fill="white" transform="translate(0.529297)"/>
</clipPath>
</defs>
</svg>
