<svg width="201" height="120" viewBox="0 0 201 120" fill="none" xmlns="http://www.w3.org/2000/svg">
<g clip-path="url(#clip0_3559_124)">
<path d="M100.574 0C73.9768 0 57.3535 13.2987 50.7041 39.8961C60.6781 26.5974 72.3145 21.6104 85.6132 24.9351C93.2005 26.8317 98.6239 32.3369 104.627 38.4296C114.406 48.3561 125.724 59.8442 150.444 59.8442C177.042 59.8442 193.665 46.5455 200.314 19.9481C190.34 33.2468 178.704 38.2338 165.405 34.9091C157.818 33.0125 152.395 27.5073 146.392 21.4145C136.612 11.4881 125.295 0 100.574 0ZM50.7041 59.8442C24.1067 59.8442 7.48334 73.1429 0.833984 99.7403C10.808 86.4416 22.4444 81.4545 35.7431 84.7792C43.3303 86.6758 48.7537 92.181 54.7568 98.2738C64.5361 108.2 75.8535 119.688 100.574 119.688C127.172 119.688 143.795 106.39 150.444 79.7922C140.47 93.0909 128.834 98.0779 115.535 94.7532C107.948 92.8566 102.525 87.3514 96.5215 81.2587C86.7423 71.3322 75.4249 59.8442 50.7041 59.8442Z" fill="url(#paint0_linear_3559_124)"/>
</g>
<defs>
<linearGradient id="paint0_linear_3559_124" x1="-553.323" y1="3830.03" x2="16675.1" y2="13763.6" gradientUnits="userSpaceOnUse">
<stop stop-color="#2298BD"/>
<stop offset="1" stop-color="#0ED7B5"/>
</linearGradient>
<clipPath id="clip0_3559_124">
<rect width="199.49" height="120" fill="white" transform="translate(0.829102)"/>
</clipPath>
</defs>
</svg>
