<svg width="121" height="120" viewBox="0 0 121 120" fill="none" xmlns="http://www.w3.org/2000/svg">
<g clip-path="url(#clip0_3559_80)">
<mask id="mask0_3559_80" style="mask-type:luminance" maskUnits="userSpaceOnUse" x="0" y="0" width="121" height="120">
<path d="M85.4334 119.341C86.392 119.715 87.4173 119.887 88.4455 119.848C89.4737 119.808 90.4827 119.558 91.4098 119.111L116.213 107.177C117.491 106.562 118.569 105.598 119.323 104.398C120.077 103.197 120.477 101.808 120.477 100.39V19.4632C120.477 18.0455 120.077 16.6565 119.323 15.4561C118.569 14.2557 117.491 13.2926 116.213 12.6775L91.4103 0.742264C90.0087 0.0680652 88.4322 -0.153874 86.899 0.107154C85.3658 0.368181 83.9515 1.09927 82.852 2.19927L35.3684 45.5197L14.6849 29.8196C13.7519 29.1114 12.6005 28.7521 11.4303 28.8042C10.2601 28.8562 9.14506 29.3162 8.27862 30.1045L1.64508 36.139C-0.542325 38.1284 -0.544687 41.5697 1.63941 43.5624L19.5766 59.9268L1.63941 76.2908C-0.544687 78.284 -0.542325 81.7248 1.64508 83.7147L8.27862 89.7487C9.145 90.537 10.26 90.9972 11.4302 91.0493C12.6004 91.1014 13.7519 90.7422 14.6849 90.0341L35.3684 74.3335L82.852 117.654C83.5861 118.389 84.4652 118.964 85.4334 119.341M90.3771 32.5777L54.3478 59.9268L90.3771 87.2755V32.5777Z" fill="white"/>
</mask>
<g mask="url(#mask0_3559_80)">
<path d="M116.287 12.6959L91.4641 0.744101C90.0622 0.0691483 88.4851 -0.153378 86.9512 0.107314C85.4172 0.368006 84.0023 1.09903 82.902 2.19922L1.64029 76.2907C-0.545218 78.2839 -0.542384 81.7247 1.64596 83.7147L8.28376 89.7487C9.15091 90.5371 10.2666 90.9973 11.4375 91.0494C12.6083 91.1016 13.7605 90.7423 14.6943 90.034L112.552 15.7965C115.835 13.3063 120.55 15.6477 120.55 19.7684V19.4802C120.55 18.0627 120.15 16.6741 119.396 15.474C118.642 14.2738 117.564 13.3109 116.287 12.6959Z" fill="#0065A9"/>
</g>
<mask id="mask1_3559_80" style="mask-type:luminance" maskUnits="userSpaceOnUse" x="0" y="0" width="121" height="120">
<path d="M85.4334 119.341C86.392 119.715 87.4173 119.887 88.4455 119.848C89.4737 119.808 90.4827 119.558 91.4098 119.111L116.213 107.177C117.491 106.562 118.569 105.598 119.323 104.398C120.077 103.197 120.477 101.808 120.477 100.39V19.4632C120.477 18.0455 120.077 16.6565 119.323 15.4561C118.569 14.2557 117.491 13.2926 116.213 12.6775L91.4103 0.742264C90.0087 0.0680652 88.4322 -0.153874 86.899 0.107154C85.3658 0.368181 83.9515 1.09927 82.852 2.19927L35.3684 45.5197L14.6849 29.8196C13.7519 29.1114 12.6005 28.7521 11.4303 28.8042C10.2601 28.8562 9.14506 29.3162 8.27862 30.1045L1.64508 36.139C-0.542325 38.1284 -0.544687 41.5697 1.63941 43.5624L19.5766 59.9268L1.63941 76.2908C-0.544687 78.284 -0.542325 81.7248 1.64508 83.7147L8.27862 89.7487C9.145 90.537 10.26 90.9972 11.4302 91.0493C12.6004 91.1014 13.7519 90.7422 14.6849 90.0341L35.3684 74.3335L82.852 117.654C83.5861 118.389 84.4652 118.964 85.4334 119.341M90.3771 32.5777L54.3478 59.9268L90.3771 87.2755V32.5777Z" fill="white"/>
</mask>
<g mask="url(#mask1_3559_80)">
<path d="M116.287 107.157L91.4641 119.109C90.0621 119.784 88.4851 120.006 86.9513 119.745C85.4174 119.485 84.0024 118.754 82.902 117.654L1.64029 43.5624C-0.545218 41.5696 -0.542384 38.1284 1.64596 36.1389L8.28376 30.1044C9.15097 29.316 10.2667 28.8559 11.4376 28.8039C12.6084 28.7519 13.7606 29.1112 14.6943 29.8195L112.552 104.057C115.835 106.547 120.55 104.205 120.55 100.084V100.373C120.55 101.79 120.15 103.179 119.396 104.379C118.642 105.579 117.564 106.542 116.287 107.157Z" fill="#007ACC"/>
</g>
<mask id="mask2_3559_80" style="mask-type:luminance" maskUnits="userSpaceOnUse" x="0" y="0" width="121" height="120">
<path d="M85.4334 119.341C86.392 119.715 87.4173 119.887 88.4455 119.848C89.4737 119.808 90.4827 119.558 91.4098 119.111L116.213 107.177C117.491 106.562 118.569 105.598 119.323 104.398C120.077 103.197 120.477 101.808 120.477 100.39V19.4632C120.477 18.0455 120.077 16.6565 119.323 15.4561C118.569 14.2557 117.491 13.2926 116.213 12.6775L91.4103 0.742264C90.0087 0.0680652 88.4322 -0.153874 86.899 0.107154C85.3658 0.368181 83.9515 1.09927 82.852 2.19927L35.3684 45.5197L14.6849 29.8196C13.7519 29.1114 12.6005 28.7521 11.4303 28.8042C10.2601 28.8562 9.14506 29.3162 8.27862 30.1045L1.64508 36.139C-0.542325 38.1284 -0.544687 41.5697 1.63941 43.5624L19.5766 59.9268L1.63941 76.2908C-0.544687 78.284 -0.542325 81.7248 1.64508 83.7147L8.27862 89.7487C9.145 90.537 10.26 90.9972 11.4302 91.0493C12.6004 91.1014 13.7519 90.7422 14.6849 90.0341L35.3684 74.3335L82.852 117.654C83.5861 118.389 84.4652 118.964 85.4334 119.341M90.3771 32.5777L54.3478 59.9268L90.3771 87.2755V32.5777Z" fill="white"/>
</mask>
<g mask="url(#mask2_3559_80)">
<path d="M91.3862 119.118C89.984 119.793 88.4068 120.015 86.8727 119.754C85.3386 119.493 83.9236 118.762 82.8232 117.662C85.6017 120.44 90.353 118.472 90.353 114.542V5.32583C90.353 1.39607 85.6017 -0.571647 82.8232 2.20678C83.9235 1.10638 85.3386 0.375087 86.8726 0.114064C88.4067 -0.146959 89.9839 0.0751858 91.3862 0.749771L116.205 12.685C117.483 13.2997 118.561 14.2627 119.316 15.4632C120.071 16.6636 120.471 18.0527 120.471 19.4707V100.398C120.471 103.292 118.813 105.93 116.205 107.184L91.3862 119.118Z" fill="#1F9CF0"/>
</g>
<mask id="mask3_3559_80" style="mask-type:luminance" maskUnits="userSpaceOnUse" x="0" y="0" width="121" height="120">
<path d="M85.4334 119.341C86.392 119.715 87.4173 119.887 88.4455 119.848C89.4737 119.808 90.4827 119.558 91.4098 119.111L116.213 107.177C117.491 106.562 118.569 105.598 119.323 104.398C120.077 103.197 120.477 101.808 120.477 100.39V19.4632C120.477 18.0455 120.077 16.6565 119.323 15.4561C118.569 14.2557 117.491 13.2926 116.213 12.6775L91.4103 0.742264C90.0087 0.0680652 88.4322 -0.153874 86.899 0.107154C85.3658 0.368181 83.9515 1.09927 82.852 2.19927L35.3684 45.5197L14.6849 29.8196C13.7519 29.1114 12.6005 28.7521 11.4303 28.8042C10.2601 28.8562 9.14506 29.3162 8.27862 30.1045L1.64508 36.139C-0.542325 38.1284 -0.544687 41.5697 1.63941 43.5624L19.5766 59.9268L1.63941 76.2908C-0.544687 78.284 -0.542325 81.7248 1.64508 83.7147L8.27862 89.7487C9.145 90.537 10.26 90.9972 11.4302 91.0493C12.6004 91.1014 13.7519 90.7422 14.6849 90.0341L35.3684 74.3335L82.852 117.654C83.5861 118.389 84.4652 118.964 85.4334 119.341M90.3771 32.5777L54.3478 59.9268L90.3771 87.2755V32.5777Z" fill="white"/>
</mask>
<g mask="url(#mask3_3559_80)">
<path d="M85.4334 119.341C86.392 119.715 87.4173 119.887 88.4455 119.848C89.4737 119.808 90.4827 119.558 91.4098 119.111L116.213 107.176C117.49 106.561 118.568 105.598 119.323 104.398C120.077 103.197 120.477 101.808 120.477 100.39V19.4632C120.477 18.0454 120.077 16.6565 119.323 15.4561C118.569 14.2556 117.491 13.2925 116.213 12.6775L91.4093 0.741744C90.0078 0.067654 88.4314 -0.154226 86.8983 0.106799C85.3652 0.367824 83.951 1.09885 82.8515 2.19875L35.3684 45.5197L14.6849 29.8195C13.7519 29.1113 12.6005 28.7521 11.4303 28.8041C10.2601 28.8561 9.14506 29.3162 8.27862 30.1044L1.64508 36.1389C-0.542325 38.1284 -0.544687 41.5696 1.63941 43.5624L19.5766 59.9268L1.63941 76.2907C-0.544687 78.2839 -0.542325 81.7247 1.64508 83.7147L8.27862 89.7487C9.145 90.537 10.26 90.9971 11.4302 91.0492C12.6004 91.1014 13.7519 90.7422 14.6849 90.034L35.3684 74.3334L82.8515 117.654C83.5862 118.389 84.4654 118.963 85.4334 119.341ZM90.3771 32.5772L54.3478 59.9268L90.3771 87.2754V32.5772Z" fill="url(#paint0_linear_3559_80)" fill-opacity="0.25"/>
</g>
</g>
<defs>
<linearGradient id="paint0_linear_3559_80" x1="6023.72" y1="0.000366211" x2="6023.72" y2="11985.3" gradientUnits="userSpaceOnUse">
<stop stop-color="white"/>
<stop offset="1" stop-color="white" stop-opacity="0"/>
</linearGradient>
<clipPath id="clip0_3559_80">
<rect width="120.95" height="120" fill="white"/>
</clipPath>
</defs>
</svg>
